<svg height="16" viewBox="-.5 -.5 16 16" width="16" xmlns="http://www.w3.org/2000/svg"><g fill="#abb2c0"><path d="m15 1.875a1.875 1.875 0 0 0 -1.875-1.875h-11.25a1.875 1.875 0 0 0 -1.875 1.875v11.25a1.875 1.875 0 0 0 1.875 1.875h11.25a1.875 1.875 0 0 0 1.875-1.875zm-1.25 11.25a.625.625 0 0 1 -.625.625h-11.25a.625.625 0 0 1 -.625-.625v-11.25a.625.625 0 0 1 .625-.625h11.25a.625.625 0 0 1 .625.625z"/><path d="m2.5 5a1.25 1.25 0 0 0 1.25 1.25h1.875a1.875 1.875 0 0 0 0-3.75 1.875 1.875 0 0 0 -1.725 1.15.15625.15625 0 0 1 -.15.1 1.20625 1.20625 0 0 0 -.70625.21875 1.25 1.25 0 0 0 -.54375 1.03125z"/><path d="m2.66875 12.6375a.3125.3125 0 0 1 -.24375-.50625l1.74375-2.26875a1.1625 1.1625 0 0 1 1.6625-.125l1.15625 1.41875a.31875.31875 0 0 0 .25625.1125.30625.30625 0 0 0 .24375-.1375l1.80625-2.65a.96875.96875 0 0 1 1.70625.05625l1.825 3.65a.3.3 0 0 1 0 .3.30625.30625 0 0 1 -.2625.15z"/></g></svg>