<svg fill="none" height="16" viewBox="0 0 16 16" width="16" xmlns="http://www.w3.org/2000/svg"><g fill="#abb2c0"><path d="m10.104 13.9545c.7001 0 1.1551-.1075 1.3652-.3225.215-.2151.3225-.6801.3225-1.3952v-1.5678c0-.85512.18-1.44522.5401-1.77027.3601-.33005 1.0252-.55258 1.9953-.6676-1.0001-.13502-1.6727-.35256-2.0178-.6526-.3451-.30505-.5176-.89764-.5176-1.77778v-2.01031c0-.71011-.1075-1.17269-.3225-1.38772-.2101-.22004-.6651-.33005-1.3652-.33005h-.52512v-1.07267h.48012c1.2451 0 2.0778.18503 2.4978.55509.4251.36505.6376 1.10017.6376 2.20534v1.95031c0 .6501.1376 1.14267.4126 1.47773.28.33505.7726.50258 1.4777.50258h.9152v1.07266h-.9152c-.6451 0-1.1226.19753-1.4327.5926-.305.39506-.4576.86509-.4576 1.41019v1.5003c0 1.1051-.2125 1.8427-.6376 2.2128-.42.3701-1.2527.5551-2.4978.5551h-.48012v-1.0802z"/><path d="m6.421 13.9545v1.0802h-.48007c-1.2452 0-2.08033-.185-2.50539-.5551-.42007-.3701-.6301-1.1077-.6301-2.2128v-1.5003c0-.5451-.15503-1.01513-.46507-1.41019-.30505-.39507-.78013-.5926-1.425227-.5926h-.915143v-1.07266h.915143c.705107 0 1.195187-.16753 1.470227-.50258.28005-.33506.42007-.82763.42007-1.47773v-1.95031c0-1.10517.21003-1.84029.6301-2.20534.42506-.37006 1.26019-.55509 2.50539-.55509h.48007v1.07267h-.52508c-.70011 0-1.15768.11001-1.37271.33005-.21004.21503-.31505.67761-.31505 1.38772v2.01031c0 .88014-.17253 1.47273-.51758 1.77778-.34506.30004-1.01766.51758-2.01782.6526.97015.11502 1.63526.33755 1.99531.6676.36006.32505.54009.91515.54009 1.77027v1.5678c0 .7151.10501 1.1801.31505 1.3952.21503.215.6726.3225 1.37271.3225z"/></g></svg>